<svg xmlns="http://www.w3.org/2000/svg" width="19.138" height="14.955" viewBox="0 0 19.138 14.955"><defs><style>.a{fill:#fff;}</style></defs><path class="a" d="M157.828,136.569c-.021-.531-.042-1.079-.055-1.618-.016-.707-.016-1.292,0-1.84,0-.078.008-.16.014-.244a1.72,1.72,0,0,0-.321-1.406,2.2,2.2,0,0,0-1.268-.582,23.264,23.264,0,0,0-2.574-.112c-.216,0-.431,0-.644-.006-.6-.008-1.2-.039-1.792-.069-.831-.042-1.691-.086-2.54-.068-1.382.03-2.785.11-4.142.188-1.06.061-2.156.124-3.225.162a2.262,2.262,0,0,0-2.4,2.092c-.033.912-.013,1.837.006,2.731.015.69.03,1.4.021,2.1-.007.526-.039,1.064-.07,1.584-.034.572-.069,1.163-.072,1.748,0,.215,0,.431-.008.646a19.545,19.545,0,0,0,.035,1.955c.046.541.556.856.83,1.025a3.9,3.9,0,0,0,.539.289,5.4,5.4,0,0,0,2.022.291c.149,0,.3,0,.442.01.245.009.492.025.754.042a11.317,11.317,0,0,0,1.9.018,54.442,54.442,0,0,1,7.07-.073c1.131.035,2.3.07,3.43.077l.693.052c.059,0,.132.01.211.01a.855.855,0,0,0,.663-.246,1.124,1.124,0,0,0,.216-.7c0-.068.009-.132.017-.187a16.736,16.736,0,0,0,.139-1.925c.006-.172.011-.345.019-.519.016-.384.041-.777.065-1.156.046-.728.093-1.481.083-2.225C157.881,137.931,157.854,137.239,157.828,136.569ZM140.172,144h0a.8.8,0,0,1-.4-.5c-.05-.593-.04-1.207-.031-1.8,0-.205.006-.41.008-.615,0-.54.035-1.092.067-1.626.029-.5.06-1.01.067-1.517.009-.669-.006-1.346-.02-2-.018-.838-.037-1.7-.006-2.553a1.2,1.2,0,0,1,.469-1.024l.89.965c.89.966,1.811,1.965,2.725,2.941.177.188.369.361.555.528s.371.333.536.51a11.217,11.217,0,0,1,1.022,1.253.476.476,0,0,1-.074.262c-.581.565-1.191,1.123-1.78,1.663l-.56.514-.748.691c-.732.678-1.49,1.378-2.248,2.051A1.067,1.067,0,0,1,140.172,144Zm.007,0h0Zm10.76-4.757c-.012-.011-.023-.023-.034-.035a.823.823,0,0,0-.1-.094c-.167-.128-.391-.314-.4-.448-.009-.1.094-.267.324-.515.9-.967,1.816-1.946,2.7-2.893q1.054-1.125,2.106-2.253a2.5,2.5,0,0,0,.216-.279,1.491,1.491,0,0,1,.233-.283,1.134,1.134,0,0,1,.417-.267c.3.118.416.457.4,1.126,0,.152-.015.3-.025.451-.014.2-.027.392-.022.551.018.513.04,1.025.062,1.538.039.908.08,1.847.093,2.769.01.685-.034,1.388-.077,2.067-.023.361-.046.733-.062,1.1-.009.216-.009.434-.01.645,0,.233,0,.474-.013.708a3.934,3.934,0,0,1-.117.842.2.2,0,0,1-.149.153.552.552,0,0,1-.5-.173q-.575-.538-1.146-1.078-.613-.579-1.229-1.156-.9-.841-1.806-1.677Zm-2.72.362a8.6,8.6,0,0,0-.681-.83c-.474-.53-1.037-1.106-1.277-1.353l-.115-.118c-.576-.605-1.143-1.24-1.692-1.854-.627-.7-1.275-1.427-1.942-2.114a13.577,13.577,0,0,1-1.02-1.14.547.547,0,0,1-.073-.314,1.287,1.287,0,0,1,.265-.04c1.022-.036,2.059-.1,3.063-.153,1.277-.073,2.6-.149,3.9-.177.786-.017,1.589.024,2.366.063.56.028,1.138.058,1.709.066.744.01,1.535.039,2.418.088a.8.8,0,0,1,.239.075Zm-6.753,4.812c.476-.479.97-.961,1.509-1.475q.713-.679,1.429-1.354.683-.645,1.365-1.292c.108-.1.213-.211.314-.316a5.9,5.9,0,0,1,.5-.478.4.4,0,0,1,.183.048c.176.142.347.3.513.456.192.178.39.363.6.529a.708.708,0,0,0,.767-.027,6.128,6.128,0,0,0,.506-.514c.126-.139.245-.269.374-.391s.164-.155.352.018c.91.837,1.854,1.664,2.768,2.465.511.448,1.04.911,1.556,1.371.409.364.8.761,1.189,1.17a.162.162,0,0,1,.025.046c-1.084-.006-2.2-.04-3.275-.073-1.208-.037-2.382-.073-3.509-.073a31.084,31.084,0,0,0-3.213.142c-1.118-.005-2.255-.049-3.356-.092l-.482-.019a.576.576,0,0,1-.182-.051A.459.459,0,0,1,141.467,144.423Z" transform="translate(-138.754 -130.62)"/></svg>