<svg xmlns="http://www.w3.org/2000/svg" width="20.739" height="20.739" viewBox="0 0 20.739 20.739"><defs><style>.a{fill:#005176;}</style></defs><path class="a" d="M10.3,36.877a5.317,5.317,0,1,0,5.316,5.317A5.308,5.308,0,0,0,10.3,36.877Zm0,8.774a3.457,3.457,0,1,1,3.456-3.457A3.463,3.463,0,0,1,10.3,45.651ZM17.07,36.66a1.24,1.24,0,1,1-1.24-1.24A1.237,1.237,0,0,1,17.07,36.66Zm3.521,1.259a6.138,6.138,0,0,0-1.675-4.345A6.176,6.176,0,0,0,14.572,31.9c-1.712-.1-6.843-.1-8.555,0a6.167,6.167,0,0,0-4.344,1.671A6.158,6.158,0,0,0,0,37.914c-.1,1.712-.1,6.844,0,8.557a6.138,6.138,0,0,0,1.675,4.345,6.184,6.184,0,0,0,4.344,1.675c1.712.1,6.843.1,8.555,0a6.135,6.135,0,0,0,4.344-1.675,6.179,6.179,0,0,0,1.675-4.345C20.688,44.758,20.688,39.631,20.591,37.918ZM18.38,48.308a3.5,3.5,0,0,1-1.971,1.971c-1.365.541-4.6.416-6.112.416s-4.752.12-6.112-.416a3.5,3.5,0,0,1-1.971-1.971c-.541-1.365-.416-4.6-.416-6.113s-.12-4.753.416-6.113A3.5,3.5,0,0,1,4.185,34.11c1.365-.541,4.6-.416,6.112-.416s4.752-.12,6.112.416a3.5,3.5,0,0,1,1.971,1.971c.541,1.365.416,4.6.416,6.113S18.921,46.947,18.38,48.308Z" transform="translate(0.075 -31.825)"/></svg>