<svg xmlns="http://www.w3.org/2000/svg" width="14.811" height="23.086" viewBox="0 0 14.811 23.086"><defs><style>.a{fill:#fff;}</style></defs><g transform="translate(-170.454 -364.448)"><path class="a" d="M185.238,370.774a6.7,6.7,0,0,0-2.462-4.781,8.111,8.111,0,0,0-5.416-1.539,6.643,6.643,0,0,0-5.1,2.591,8.452,8.452,0,0,0-1.785,6.077v.017a21.593,21.593,0,0,0,1.653,6.179,30.083,30.083,0,0,0,1.267,2.9c.125.246.256.492.386.738a18.236,18.236,0,0,1,.838,1.716c.033.082.072.186.116.306.306.826.817,2.209,1.655,2.5a.984.984,0,0,0,.326.057,1.1,1.1,0,0,0,.573-.173,2.59,2.59,0,0,0,.772-.848c.174-.264.367-.522.554-.772.117-.156.233-.311.347-.471.345-.483.651-1,.947-1.5.266-.448.541-.911.841-1.342C183.088,379.069,185.552,375.117,185.238,370.774ZM176.4,385.856c-.028-.047-.053-.089-.075-.124a6.452,6.452,0,0,1-.562-1.224c-.073-.194-.149-.395-.234-.593-.33-.775-.712-1.532-1.081-2.265-.457-.906-.929-1.842-1.3-2.808a20.893,20.893,0,0,1-1.619-6.008,7.049,7.049,0,0,1,1.423-5.007,5.525,5.525,0,0,1,4.046-2.213,7.551,7.551,0,0,1,4.794,1.111,5.716,5.716,0,0,1,2.374,4.026,11.487,11.487,0,0,1-.964,5.4,21.943,21.943,0,0,1-2.785,4.991c-.557.773-1.029,1.478-1.443,2.157-.459.752-.938,1.444-1.446,2.177l-.03.044c-.047.068-.1.152-.151.25-.107.189-.357.632-.51.613C176.7,386.365,176.479,386,176.4,385.856Z" transform="translate(0)"/><path class="a" d="M205.495,409.9a3.141,3.141,0,0,0,1.589-2.062,2.669,2.669,0,0,0-.068-2.263,4.122,4.122,0,0,0-2.615-1.42l-.039-.007-.038-.005a2.959,2.959,0,0,0-3.577,2.422c-.38,2.241.7,3.4,1.842,3.736a3.11,3.11,0,0,0,.882.122A4.448,4.448,0,0,0,205.495,409.9Zm-3.124-4.271a2,2,0,0,1,1.247-.371,3.5,3.5,0,0,1,.487.036,3.753,3.753,0,0,1,1.908.9c.339.334.211.941.062,1.432a1.858,1.858,0,0,1-1.1,1.319,3.051,3.051,0,0,1-2.028.23,2.012,2.012,0,0,1-1.193-2.326A1.711,1.711,0,0,1,202.371,405.625Z" transform="translate(-26.236 -34.429)"/></g></svg>