<svg xmlns="http://www.w3.org/2000/svg" width="228.265" height="38.748" viewBox="0 0 228.265 38.748"><defs><style>.a{fill:#464749;}</style></defs><g transform="translate(-20 -607.983)"><g transform="translate(70.414 617.945)"><path class="a" d="M231.187,572.463h-6.243l3.121-7.283Zm4.67,6.243-7.607-17.248h-.3l-7.607,17.248h1.919l2.011-4.693h7.583l2.011,4.693Zm-20.634.254v-17.2h-1.85v12.647l-10.867-12.971-.37.092v17.179h1.85V565.851l11.005,13.179Zm-20.055-17.2h-1.85v16.947h1.85Zm-7.385,16.947v-1.665h-8.069V561.759h-1.85v16.947Zm-16.563-6.081V561.759h-1.85v10.728c0,3.376-1.919,4.832-4.555,4.832-2.659,0-4.508-1.433-4.508-4.832V561.759h-1.85v10.867c0,4.069,2.474,6.358,6.358,6.358,3.792,0,6.4-2.428,6.4-6.358m-22.113-.162h-6.243l3.121-7.283Zm4.67,6.243-7.607-17.248h-.3l-7.607,17.248h1.919l2.011-4.693h7.583l2.011,4.693Zm-19.986-11.537c0,2.2-1.364,4.023-4.532,4.023a18.763,18.763,0,0,1-2.035-.139v-7.56a11.709,11.709,0,0,1,2.312-.185c2.8,0,4.254,1.873,4.254,3.861m1.988-.139c0-2.89-2.15-5.387-6.52-5.387a29.516,29.516,0,0,0-3.884.277v16.785h1.85v-5.988c.578.046,1.341.092,1.919.092,4.162,0,6.636-2.381,6.636-5.78" transform="translate(-125.376 -560.998)"/><path class="a" d="M352.274,584.28v-1.024h-2.9v-1.836H352v-.988h-2.616v-1.719h2.9v-1.024h-4.018v6.589Zm-7.8-1.86c0-.863-.378-1.394-1.681-1.96-.819-.36-1.143-.621-1.143-1.062s.324-.818,1.017-.818a2.547,2.547,0,0,1,1.321.468l.36-.988a3.126,3.126,0,0,0-1.654-.476,1.955,1.955,0,0,0-2.167,1.842c0,.792.414,1.385,1.564,1.871,1.044.44,1.241.728,1.241,1.187s-.306.864-1,.864a3.051,3.051,0,0,1-1.717-.611l-.387,1.006a3.884,3.884,0,0,0,2.067.647,2,2,0,0,0,2.176-1.968m-7.8-.665v-4.064h-1.123v3.983c0,1.124-.567,1.69-1.511,1.69s-1.511-.557-1.511-1.69v-3.983h-1.123v4.064a2.381,2.381,0,0,0,2.616,2.633,2.432,2.432,0,0,0,2.652-2.633m-10.312-.765a2.143,2.143,0,1,1-2.123-2.4,2.2,2.2,0,0,1,2.123,2.4m1.2,0a3.255,3.255,0,0,0-3.3-3.407,3.306,3.306,0,0,0-3.362,3.407,3.252,3.252,0,0,0,3.3,3.4,3.3,3.3,0,0,0,3.362-3.4m-10.574,3.29v-6.589H315.87v2.742h-3.031v-2.742h-1.123v6.589h1.123v-2.841h3.031v2.841Z" transform="translate(-192.042 -566.776)"/><path class="a" d="M369.4,561.9v-1.024h-5.3V561.9h2.095v5.566h1.123V561.9Zm-9.656,1.188c0,.746-.468,1.277-1.484,1.277-.2,0-.4-.018-.629-.036v-2.411a4.9,4.9,0,0,1,.737-.054,1.231,1.231,0,0,1,1.376,1.223m1.168-.036c0-1.232-.925-2.22-2.733-2.22a13.58,13.58,0,0,0-1.672.108v6.526h1.123v-2.149c.216.009.441.027.656.027,1.682,0,2.625-.952,2.625-2.292m-8.425,4.414v-1.024h-2.9v-1.836h2.616v-.988h-2.616V561.9h2.9v-1.024h-4.018v6.589Zm-7.706-.512-.342-.952a3.742,3.742,0,0,1-1.8.521,2.352,2.352,0,0,1-.027-4.7,3.722,3.722,0,0,1,1.753.5l.387-.952a4.119,4.119,0,0,0-2.122-.6,3.406,3.406,0,1,0,0,6.805,4.122,4.122,0,0,0,2.149-.62m-9.612.611v-6.688h-1.123v4.162l-4.074-4.288-.179.036v6.679h1.123v-4.225l4.127,4.351Zm-10.492-3.389a2.143,2.143,0,1,1-2.123-2.4,2.2,2.2,0,0,1,2.123,2.4m1.2,0a3.255,3.255,0,0,0-3.3-3.407,3.306,3.306,0,0,0-3.362,3.407,3.252,3.252,0,0,0,3.3,3.4,3.3,3.3,0,0,0,3.362-3.4m-9.854,2.778-.342-.952a3.742,3.742,0,0,1-1.8.521,2.352,2.352,0,0,1-.027-4.7,3.722,3.722,0,0,1,1.753.5l.387-.952a4.119,4.119,0,0,0-2.122-.6,3.406,3.406,0,1,0,0,6.805,4.122,4.122,0,0,0,2.149-.62" transform="translate(-191.545 -560.755)"/></g><g transform="translate(20 607.983)"><path class="a" d="M-361.56,289.67a19.4,19.4,0,0,0-19.374,19.374,19.4,19.4,0,0,0,19.374,19.374,19.4,19.4,0,0,0,19.374-19.374A19.4,19.4,0,0,0-361.56,289.67Zm0,1.024a18.37,18.37,0,0,1,18.349,18.35q0,.742-.059,1.469h-9.876a31.562,31.562,0,0,1-1.316-3.3c0-.337-.463-2.609-.463-3.284s.54-6.741.54-6.741l-.354.193-.109-.664s-1.158-.067-1.775-.135-1.621,1.887-1.621,1.887l.154.539.773-1.079.231,1.281.385-1.685.385.608.464-.81.847.247c-.016.47-.161,4.685-.307,5.956a16.262,16.262,0,0,0,.385,3.755,21.237,21.237,0,0,1,.015,3.236h-7.28c.269-1.464.9-4.887.957-5.309.065-.457.314-2.989.468-4.451.017-.165.03-.327.037-.425l-.492.153-.042-1.528s-.927-.135-1.312-.135a5.169,5.169,0,0,0-1.39.539v1.82l.386-1.077.619,1.685.231-1.416.694,1.214-.077-1.012s.617-.606.617-.337v3.1a14.448,14.448,0,0,1-.509,3.757,20,20,0,0,1-1.576,3.422h-2.61v-1.955c0-1.348-.079-4.767-.31-6.587s-1-4.988-1-4.988l1.313.471-.465,1.551,1.621-1.483-.617,1.955.617-.539-.54,1.146,1.079-.271.542-1.279s-1.542-1.752-2.006-1.752h-1.467s-1.388-1.283-1-.675a24.284,24.284,0,0,1,1.542,6.135,36.212,36.212,0,0,1-.54,6.183c-.172.8-.432,1.686-.555,2.09h-11.871q-.058-.727-.059-1.469A18.371,18.371,0,0,1-361.56,290.694Zm-18.2,20.672h36.406a18.217,18.217,0,0,1-2.375,6.952h-31.655A18.217,18.217,0,0,1-379.763,311.366Zm18.2,16.027a18.347,18.347,0,0,1-15.294-8.222h30.587A18.347,18.347,0,0,1-361.56,327.394Z" transform="translate(380.934 -289.67)"/><path class="a" d="M-300.087,319.441l-.231-1.214.927.675-.31-1.012,1.159.944-.463-1.079,1.31.673a9.43,9.43,0,0,0-2.006-1.551c-.542-.137-.848.069-1.542.2s-1.467,1.549-1.467,1.549l.308.067Z" transform="translate(316.065 -312.196)"/><path class="a" d="M-330.488,321.439a6.122,6.122,0,0,0-.694,1.955h.463l.308-1.146.308.473.385-.81.231.608.927-1.012.463.875.54-.808.619-.337a2.633,2.633,0,0,0-1.929-.539l-.131.041a3.124,3.124,0,0,1,.979-.649c.463-.135,1.158.4,1.158.4l-.85-.943a6.166,6.166,0,0,0-1.542-.471c-.463,0-1.7,1.145-1.7,1.145l.231,1.012,1.079-1.416-.231,1.147,1-1.348-.219,1.147A2.816,2.816,0,0,0-330.488,321.439Z" transform="translate(339.676 -314.06)"/><path class="a" d="M-280.957,322.258l.7-.54.231.406.617-.338,1.313,1.146,2.546-.808-.927-.406,1.467-.135-.231-.606-1-.067.024-.012.978-.46-1.236-.067,1.312-.675-1-.4.925-.606-1.39.337-1,1.01-.617,2.022-1.312-1.145-1.159.4Z" transform="translate(298.025 -313.732)"/><path class="a" d="M-225.618,329.414l.231-1.416.771,1.01.154-1.279.85.943.771-.539a3.592,3.592,0,0,0-1.775-.877,4.575,4.575,0,0,0-2.161.406l.385.808Z" transform="translate(253.095 -320.821)"/><path class="a" d="M-244.753,317.206l.927-.4-.387,1.214,1.313-.406a4.033,4.033,0,0,0-.386-1.279,7.4,7.4,0,0,0-1.467-.81l-1,1.147,1.388-.472Z" transform="translate(268.833 -311.108)"/><path class="a" d="M-261.334,349.147l-.925.541h1.079l-.539.808,1.082-.538-.619,1.483,1.236-.675.308.944.462-.541a14.4,14.4,0,0,0-.385-2.628,3.212,3.212,0,0,0-1.079-.944l-1.852.675s0,.035-.006.093l1.163-.363Z" transform="translate(282.781 -337.707)"/><path class="a" d="M-229.607,426.827l-2.889-3.448-.1.025v4.567h.492v-3.417l2.926,3.5.061-.018v-4.573h-.492Z" transform="translate(257.919 -400.552)"/><path class="a" d="M-351.084,423.7a7.846,7.846,0,0,0-1.033.074v4.462h.492v-1.592c.154.012.356.025.51.025a1.555,1.555,0,0,0,1.764-1.537C-349.351,424.367-349.923,423.7-351.084,423.7Zm0,2.538a4.957,4.957,0,0,1-.541-.037v-2.01a3.113,3.113,0,0,1,.615-.049,1.034,1.034,0,0,1,1.131,1.026C-349.88,425.756-350.242,426.241-351.084,426.241Z" transform="translate(357.037 -400.82)"/><rect class="a" width="0.492" height="4.505" transform="translate(22.981 22.914)"/><path class="a" d="M-269.9,423.883h-.492v4.505h2.637v-.443H-269.9Z" transform="translate(289.261 -400.97)"/><path class="a" d="M-297.705,426.735a1.131,1.131,0,0,1-1.211,1.285,1.117,1.117,0,0,1-1.2-1.285v-2.852h-.492v2.889a1.554,1.554,0,0,0,1.69,1.69,1.594,1.594,0,0,0,1.7-1.69v-2.889h-.492Z" transform="translate(314.32 -400.969)"/><path class="a" d="M-202.144,423.415h-.08L-204.246,428h.51l.535-1.247h2.016l.535,1.247h.529Zm-.879,2.926.83-1.936.83,1.936Z" transform="translate(234.411 -400.581)"/><path class="a" d="M-330.028,423.415-332.05,428h.51l.535-1.247h2.016l.535,1.247h.529l-2.022-4.585Zm-.8,2.926.83-1.936.83,1.936Z" transform="translate(340.396 -400.581)"/><path class="a" d="M-267.176,489.27c0,.3-.151.449-.4.449s-.4-.148-.4-.449v-1.059h-.3v1.08a.633.633,0,0,0,.7.7.647.647,0,0,0,.7-.7v-1.08h-.3Z" transform="translate(287.511 -454.315)"/><path class="a" d="M-283.736,488.043a.879.879,0,0,0-.894.906.865.865,0,0,0,.877.9.878.878,0,0,0,.894-.9A.865.865,0,0,0-283.736,488.043Zm-.007,1.544a.586.586,0,0,1-.567-.638.584.584,0,0,1,.567-.638.584.584,0,0,1,.564.638A.585.585,0,0,1-283.743,489.587Z" transform="translate(301.072 -454.176)"/><path class="a" d="M-242.043,489.963h1.068v-.272h-.77V489.2h.7v-.263h-.7v-.457h.77v-.272h-1.068Z" transform="translate(265.755 -454.315)"/><path class="a" d="M-297.834,488.94h-.806v-.729h-.3v1.752h.3v-.755h.806v.755h.3v-1.752h-.3Z" transform="translate(312.937 -454.315)"/><path class="a" d="M-253.85,488.808c-.218-.1-.3-.165-.3-.282s.086-.217.27-.217a.677.677,0,0,1,.351.124l.1-.263a.831.831,0,0,0-.44-.126.52.52,0,0,0-.576.49c0,.211.11.368.416.5.277.117.33.194.33.316s-.081.23-.265.23a.811.811,0,0,1-.456-.163l-.1.267a1.032,1.032,0,0,0,.55.172.532.532,0,0,0,.578-.523C-253.4,489.1-253.5,488.958-253.85,488.808Z" transform="translate(276.111 -454.176)"/><path class="a" d="M-253.844,473.163h1.068v-.272h-.77V472.4h.7v-.263h-.7v-.457h.77v-.272h-1.068Z" transform="translate(275.542 -440.383)"/><path class="a" d="M-229.513,471.683h.557v1.479h.3v-1.479h.555v-.272h-1.41Z" transform="translate(255.365 -440.383)"/><path class="a" d="M-240.885,471.341a3.609,3.609,0,0,0-.444.029V473.1h.3v-.571c.057,0,.117.007.174.007a.612.612,0,0,0,.7-.609C-240.158,471.6-240.4,471.341-240.885,471.341Zm.022.939c-.053,0-.108,0-.167-.01v-.641a1.305,1.305,0,0,1,.2-.014.327.327,0,0,1,.366.325C-240.469,472.139-240.593,472.28-240.863,472.28Z" transform="translate(265.163 -440.325)"/><path class="a" d="M-282.624,471.877l1.1,1.157.033-.007v-1.778h-.3v1.107l-1.083-1.14-.048.01V473h.3Z" transform="translate(299.655 -440.221)"/><path class="a" d="M-312.286,472.773a.589.589,0,0,1-.626-.624.584.584,0,0,1,.619-.626.99.99,0,0,1,.466.134l.1-.253a1.1,1.1,0,0,0-.564-.16.9.9,0,0,0-.944.906.891.891,0,0,0,.944.9,1.1,1.1,0,0,0,.571-.165l-.091-.253A1,1,0,0,1-312.286,472.773Z" transform="translate(324.79 -440.244)"/><path class="a" d="M-267.514,472.773a.589.589,0,0,1-.626-.624.584.584,0,0,1,.619-.626.99.99,0,0,1,.466.134l.1-.253a1.1,1.1,0,0,0-.564-.16.9.9,0,0,0-.944.906.891.891,0,0,0,.944.9,1.1,1.1,0,0,0,.571-.165l-.091-.253A1,1,0,0,1-267.514,472.773Z" transform="translate(287.662 -440.244)"/><path class="a" d="M-298.492,471.243a.879.879,0,0,0-.894.906.865.865,0,0,0,.877.9.878.878,0,0,0,.894-.9A.865.865,0,0,0-298.492,471.243Zm-.007,1.544a.586.586,0,0,1-.567-.638.584.584,0,0,1,.567-.638.584.584,0,0,1,.564.638A.585.585,0,0,1-298.5,472.787Z" transform="translate(313.308 -440.244)"/></g></g></svg>